# xmcd CD database file
# Copyright (C) 1993-1998 Ti Kan
# 
# Track frame offsets:
#     150
#     12587
#     24705
#     46970
#     68852
#     83495
#     100362
#     113232
#     130357
#     145862
#     160882
#     178402
#     192297
# 
# Disc length: 2741 seconds
# 
# Revision: 1
# Processed by: cddbd v1.4b41PL1 Copyright (c) Steve Scherf et al.
# Submitted via: DiscPlay 4.0.4
# 
DISCID=b70ab30d
DTITLE=Bokkereidars Blues Band - Bokkereidars Blues Band
DYEAR=1900
DGENRE=
TTITLE0=kiddy boy
TTITLE1=if you love me like you say
TTITLE2=whole lotta lovin'
TTITLE3=can't hold on
TTITLE4=i've got a woman
TTITLE5=we'll play the blues for you
TTITLE6=i'm a better lovin' man
TTITLE7=goodbye my lady
TTITLE8=sugar sweet
TTITLE9=woke up this mornin'
TTITLE10=i done got over it
TTITLE11=let the good time roll
TTITLE12=so long
EXTD=
EXTT0=
EXTT1=
EXTT2=
EXTT3=
EXTT4=
EXTT5=
EXTT6=
EXTT7=
EXTT8=
EXTT9=
EXTT10=
EXTT11=
EXTT12=
PLAYORDER=
